
<svg xmlns="http://www.w3.org/2000/svg" version="1.1" xmlns:xlink="http://www.w3.org/1999/xlink" preserveAspectRatio="none" x="0px" y="0px" width="500px" height="167px" viewBox="0 0 500 167">
<defs>
<g id="Layer0_0_FILL">
<path fill="#FF0000" stroke="none" d="
M 217.8 277.85
L 209.6 277.85
Q 211.601171875 278.1 213.65 278.1 213.7 278.1 213.75 278.1 215.798828125 278.1 217.8 277.85
M 316.55 277.85
Q 318.551171875 278.1 320.6 278.1
L 320.6 277.85 316.55 277.85
M 126.1 277.85
L 122.05 277.85
Q 124.051171875 278.1 126.1 278.1
L 126.1 277.85
M 160.65 277.85
L 152.55 277.85
Q 154.551171875 278.1 156.6 278.1 158.6650390625 278.1 160.65 277.85
M 339.2 278.1
L 339.2 277.85 323.25 277.85 323.25 278.1 339.2 278.1
M 342.2 277.85
L 342.05 278.1 362 278.1 362.15 277.85 342.2 277.85
M 405.95 278.1
Q 405.94453125 277.9728515625 405.9 277.85
L 380.45 277.85
Q 380.58046875 277.975390625 380.7 278.1
L 405.95 278.1 Z"/>

<path fill="#FF2222" fill-opacity="0.8" stroke="none" d="
M 199.55 253.8
L 182.6 253.8
Q 183.1732421875 256.141015625 184.1 258.4 184.6 259.5 185.2 260.6 187.4 265.15 191.05 268.75 195.55 273.2 201.4 275.7 205.3962890625 277.3255859375 209.6 277.85
L 217.8 277.85
Q 221.971484375 277.3255859375 225.9 275.7 231.75 273.2 236.25 268.75 239.05 265.95 241.05 262.55
L 227.4 254.4
Q 226.4 256.05 224.95 257.45 220.25 262.15 213.65 262.15 207.1 262.15 202.35 257.45 200.6392578125 255.7576171875 199.55 253.8
M 270.05 269.9
L 270.05 253.8 254 253.8 254 269.9 254.1 269.9
Q 254.1 274.30234375 252.05 277.85
L 269.05 277.85
Q 270.05 274.0068359375 270.05 269.9
M 309.3 257.45
Q 307.6076171875 255.7576171875 306.5 253.8
L 289.6 253.8
Q 290.1732421875 256.141015625 291.1 258.4 293.5 264.25 298 268.75 302.45 273.2 308.35 275.7 312.3462890625 277.3255859375 316.55 277.85
L 320.6 277.85 320.6 262.15
Q 314 262.15 309.3 257.45
M 114.8 257.45
Q 113.1076171875 255.7576171875 112 253.8
L 95.1 253.8
Q 95.6732421875 256.141015625 96.6 258.4 99 264.25 103.5 268.75 107.95 273.2 113.85 275.7 117.8462890625 277.3255859375 122.05 277.85
L 126.1 277.85 126.1 262.15
Q 126 262.15 125.85 262.15 119.45 262.1 114.8 257.45
M 145.3 257.45
Q 143.62578125 255.7576171875 142.55 253.8
L 125.6 253.8
Q 126.1732421875 256.141015625 127.1 258.4 129.55 264.25 134 268.75 138.5 273.2 144.4 275.7 148.3625 277.3255859375 152.55 277.85
L 160.65 277.85
Q 164.8875 277.3255859375 168.85 275.7 174.75 273.2 179.2 268.75 181.7 266.25 183.6 263.35 182.6 261.55 181.8 259.7 180.5939453125 256.8328125 179.9 253.8
L 170.7 253.8
Q 169.62890625 255.7576171875 167.9 257.45 163.3 262.15 156.6 262.15 150.05 262.15 145.3 257.45
M 339.2 277.85
L 339.2 253.8 323.25 253.8 323.25 277.85 339.2 277.85
M 342.2 277.85
L 362.15 277.85 371.25 264.75
Q 371.9 266.05 372.6 267.4 375.9134765625 273.0525390625 380.45 277.85
L 405.9 277.85
Q 405.7287109375 276.8615234375 404.35 276.15 401.6 274.8 399.05 273.05 395.95 270.9 393.3 268.2 389.35 264.2 386.55 259.5 385.45 257.45 384.5 255.35 384.3 255 384.2 254.65 384.025 254.2271484375 383.85 253.8
L 358.75 253.8 342.2 277.85 Z"/>

<path fill="#FF2222" stroke="none" d="
M 213.75 214.2
Q 213.7 214.2 213.65 214.2 207.3 214.2 201.4 216.6 195.55 219.05 191.05 223.55 187.4 227.2 185.2 231.7 184.6 232.8 184.1 233.9 181.7 239.8 181.7 246.15 181.7 250.0787109375 182.6 253.8
L 199.55 253.8
Q 197.65 250.3796875 197.65 246.15 197.65 239.55 202.35 234.8 207.1 230.2 213.65 230.2 220.25 230.2 224.95 234.8 225.7 235.6 226.35 236.4 226.5 236.65 226.7 236.9 227.5 238.35 228.7 239.5
L 240.1 228.2
Q 238.4 225.7 236.25 223.55 231.75 219.05 225.9 216.6 220.1 214.2 213.75 214.2
M 286 214.2
L 286 198.2
Q 279.65 198.2 273.75 200.65 267.9 203.1 263.4 207.6 258.9 212.1 256.45 217.95 254 223.85 254 230.2
L 242.05 230.2 230.7 241.55
Q 235.2 245.65 242.05 246.15
L 254 246.15 254 253.8 270.05 253.8 270.05 246.15 286 246.15 286 230.2 270.05 230.2
Q 270.05 223.55 274.7 218.85 279.35 214.2 286 214.2
M 304.65 198.2
L 288.7 198.2 288.7 246.15
Q 288.7 250.0787109375 289.6 253.8
L 306.5 253.8
Q 304.65 250.3796875 304.65 246.15
L 304.65 198.2
M 110.15 246.15
L 110.15 198.2 94.2 198.2 94.2 246.15
Q 94.2 250.0787109375 95.1 253.8
L 112 253.8
Q 110.15 250.3796875 110.15 246.15
M 144.4 216.6
Q 138.5 219.05 134 223.55 129.55 228.1 127.1 233.9 124.7 239.8 124.7 246.15 124.7 250.0787109375 125.6 253.8
L 142.55 253.8
Q 140.7 250.3796875 140.7 246.15 140.7 239.55 145.3 234.8 150.05 230.2 156.6 230.2 163.3 230.2 167.9 234.8 172.65 239.55 172.65 246.15 172.65 250.3796875 170.7 253.8
L 179.9 253.8
Q 179.15 250.16875 179.15 246.3 179.15 239.4 181.8 233 182.6 231 183.7 229.15 181.8 226.1 179.2 223.55 174.75 219.05 168.85 216.6 163 214.2 156.6 214.2 150.25 214.2 144.4 216.6
M 339.2 220.4
Q 338.65 220.1 338 219.85 334.35 218.3 330.5 217.6 327.05 216.95 323.25 216.9
L 323.25 253.8 339.2 253.8 339.2 220.4
M 339.2 200.55
Q 336.7 199.85 334.2 199.35 328.95 198.35 323.25 198.35
L 323.25 214.3
Q 331.55 214.3 339.2 217.45
L 339.2 200.55
M 385.95 214.2
L 375.05 230.1
Q 374.35 228.7 373.65 227.4 369.85 220.85 364.3 215.3 356.2 207.2 345.6 202.75 343.8 201.95 341.9 201.4
L 341.9 218.65
Q 344.65 220 347.25 221.75 350.3 223.85 353 226.55 356.95 230.6 359.7 235.3 360.85 237.35 361.8 239.45 361.95 239.8 362.1 240.15 363.3 243.05 364 246.15
L 358.75 253.8 383.85 253.8
Q 382.8978515625 251.298046875 382.3 248.65
L 405.95 214.2 385.95 214.2 Z"/>

<path fill="#FF2222" fill-opacity="0.4" stroke="none" d="
M 259.25 293.9
L 238.15 293.9 238.15 301.9
Q 244.45 301.9 250.35 299.45 255.2970703125 297.395703125 259.25 293.9 Z"/>

<path fill="#FF2222" fill-opacity="0.6" stroke="none" d="
M 259.25 293.9
Q 260.023046875 293.226953125 260.75 292.5 265.2 288.05 267.65 282.15 268.521875 280.04296875 269.05 277.85
L 252.05 277.85
Q 250.9884765625 279.6615234375 249.4 281.25 244.7 285.95 238.15 285.95
L 238.15 293.9 259.25 293.9 Z"/>
</g>
</defs>

<g transform="matrix( 1.603851318359375, 0, 0, 1.603668212890625, -151.1,-317.5) ">
<use xlink:href="#Layer0_0_FILL"/>
</g>
</svg>
